<svg height="512" viewBox="0 0 512 512" width="512" xmlns="http://www.w3.org/2000/svg"><g id="Flat"><path d="m160 24h304a24 24 0 0 1 24 24v200a0 0 0 0 1 0 0h-352a0 0 0 0 1 0 0v-200a24 24 0 0 1 24-24z" fill="#348fd9"/><path d="m136 248h352a0 0 0 0 1 0 0v24a24 24 0 0 1 -24 24h-304a24 24 0 0 1 -24-24v-24a0 0 0 0 1 0 0z" fill="#e0e0de"/><g fill="#2a71ad"><path d="m200 176h32v40h-32z"/><path d="m264 152h32v64h-32z"/><path d="m328 120h32v96h-32z"/><path d="m392 88h32v128h-32z"/><path d="m160 48h16v16h-16z"/><path d="m192 48h16v16h-16z"/><path d="m224 48h16v16h-16z"/></g><path d="m358.306 59.077a8 8 0 0 0 -6.306-3.077h-32v16h4.105l-34.948 21.843-11.5-11.5a8 8 0 0 0 -10.095-1l-48 32 8.875 13.312 42.543-28.361 11.363 11.363a8 8 0 0 0 9.9 1.127l47.188-29.494-3.192 12.77 15.522 3.88 8-32a8 8 0 0 0 -1.455-6.863z" fill="#7eb457"/><path d="m168 208h288v16h-288z" fill="#2a71ad"/><path d="m136 328h352v160h-352z" fill="#b8b8b6"/><path d="m368 368h-112l24-72h64z" fill="#cfcfcd"/><path d="m248 336v120a32 32 0 0 1 -32 32h-160a32 32 0 0 1 -31.82-28.64 30.964 30.964 0 0 1 -.18-3.36v-120a40 40 0 0 1 40-40h144a39.994 39.994 0 0 1 40 40z" fill="#404f66"/><path d="m248 336v120a32 32 0 0 1 -32 32h-160a32 32 0 0 1 -31.82-28.64c83.39-24.15 161.02-68.98 218.14-143.91a39.777 39.777 0 0 1 5.68 20.55z" fill="#3b495e"/><path d="m96 296 40 80 40-80z" fill="#e0e0de"/><path d="m144 360-8 16-8-16v-64h16z" fill="#348fd9"/><path d="m24 400h56v56h-56z" fill="#fec9a3" transform="matrix(-1 0 0 -1 104 856)"/><path d="m248 432v24a32 32 0 0 1 -32 32h-16l-88-24v-59.048z" fill="#485870"/><path d="m80 400 32 4.952v59.048l-32-8z" fill="#e0e0de"/><path d="m192 400h56v56h-56z" fill="#fec9a3"/><path d="m24 432v24a32 32 0 0 0 32 32h16l88-24v-59.048z" fill="#4d5e78"/><path d="m192 400-32 4.952v59.048l32-8z" fill="#e0e0de"/><path d="m72 368h16v32h-16z" fill="#353f52"/><path d="m184 368h16v32h-16z" fill="#353f52"/><path d="m120 432h16v16h-16z" fill="#353f52"/><path d="m200 168v64a64 64 0 0 1 -64 64c-.87 0-1.73-.02-2.59-.05a64 64 0 0 1 -61.41-63.95v-64a32 32 0 0 1 32-32h64a32 32 0 0 1 32 32z" fill="#fec9a3"/><path d="m200 168v64a64 64 0 0 1 -64 64c-.87 0-1.73-.02-2.59-.05a82.35 82.35 0 0 0 28.61-62.48v-36.66a82.22 82.22 0 0 0 -24.16-58.32c-.85-.85-1.72-1.68-2.6-2.49h32.74a32 32 0 0 1 32 32z" fill="#fec093"/><path d="m72 208 24-40h80l24 40v-40a32 32 0 0 0 -32-32h-64a32 32 0 0 0 -32 32z" fill="#f07800"/><path d="m136 263.294a51.2 51.2 0 0 1 -28.438-8.638l8.875-13.312a35.176 35.176 0 0 0 39.125 0l8.875 13.312a51.189 51.189 0 0 1 -28.437 8.638z" fill="#f7ad7c"/><path d="m108 224a12 12 0 1 1 12-12 12.013 12.013 0 0 1 -12 12z" fill="#7a432a"/><path d="m164 224a12 12 0 1 1 12-12 12.013 12.013 0 0 1 -12 12z" fill="#7a432a"/><path d="m208 120h-104a32 32 0 0 0 -32 32v16h112a24 24 0 0 0 24-24z" fill="#f98500"/><path d="m280 360h176v128h-176z" fill="#693924"/><path d="m280 360v56l88 24 88-24v-56z" fill="#7a432a"/><path d="m360 400h16v16h-16z" fill="#ffb531"/><path d="m408 360h-16v-24h-48v24h-16v-24a16.019 16.019 0 0 1 16-16h48a16.019 16.019 0 0 1 16 16z" fill="#693924"/></g></svg>