<?xml version="1.0" encoding="iso-8859-1"?>
<!-- Generator: Adobe Illustrator 19.0.0, SVG Export Plug-In . SVG Version: 6.00 Build 0)  -->
<svg version="1.1" id="Capa_1" xmlns="http://www.w3.org/2000/svg" xmlns:xlink="http://www.w3.org/1999/xlink" x="0px" y="0px"
	 viewBox="0 0 512 512" style="enable-background:new 0 0 512 512;" xml:space="preserve">
<path style="fill:#FFDC64;" d="M288.065,424.339H95.677c-13.282,0-24.048-10.767-24.048-24.048V31.548
	C71.629,18.267,82.396,7.5,95.677,7.5h192.387c13.282,0,24.048,10.767,24.048,24.048V400.29
	C312.113,413.572,301.346,424.339,288.065,424.339z"/>
<g>
	<path style="fill:#FFC850;" d="M95.677,304.097V7.5c-13.282,0-24.048,10.767-24.048,24.048V400.29
		c0,13.282,10.767,24.048,24.048,24.048h192.387c13.282,0,24.048-10.767,24.048-24.048H191.871
		C138.745,400.29,95.677,357.223,95.677,304.097z"/>
	<circle style="fill:#FFC850;" cx="191.87" cy="256" r="56.11"/>
</g>
<path style="fill:#6F6571;" d="M360.21,215.919L360.21,215.919c-8.854,0-16.032-7.178-16.032-16.032V95.677
	c0-4.427,3.589-8.016,8.016-8.016h16.032c4.427,0,8.016,3.589,8.016,8.016v104.21C376.242,208.741,369.064,215.919,360.21,215.919z"
	/>
<path style="fill:#A5A578;" d="M264.016,143.774h-144.29c-4.427,0-8.016-3.589-8.016-8.016V55.597c0-4.427,3.589-8.016,8.016-8.016
	h144.29c4.427,0,8.016,3.589,8.016,8.016v80.161C272.032,140.185,268.443,143.774,264.016,143.774z"/>
<rect x="135.76" y="71.63" style="fill:#B9B982;" width="112.23" height="48.1"/>
<path style="fill:#5D5360;" d="M191.871,408.306L191.871,408.306c-8.854,0-16.032-7.178-16.032-16.032v-24.048
	c0-8.854,7.178-16.032,16.032-16.032l0,0c8.854,0,16.032,7.178,16.032,16.032v24.048
	C207.903,401.129,200.725,408.306,191.871,408.306z"/>
<path style="fill:#FF8087;" d="M424.339,215.919L424.339,215.919c-8.854,0-16.032-7.178-16.032-16.032V95.677
	c0-4.427,3.589-8.016,8.016-8.016h16.032c4.427,0,8.016,3.589,8.016,8.016v104.21C440.371,208.741,433.193,215.919,424.339,215.919z
	"/>
<path style="fill:#E6646E;" d="M256,408.306L256,408.306c-8.854,0-16.032-7.178-16.032-16.032v-24.048
	c0-8.854,7.178-16.032,16.032-16.032l0,0c8.854,0,16.032,7.178,16.032,16.032v24.048C272.032,401.129,264.854,408.306,256,408.306z"
	/>
<circle style="fill:#4B3F4E;" cx="127.74" cy="368.23" r="16.03"/>
<path style="fill:#E1AA46;" d="M191.871,199.887c-20.641,0-38.63,11.177-48.376,27.778c8.323-4.886,17.986-7.737,28.335-7.737
	c30.99,0,56.113,25.122,56.113,56.113c0,10.349-2.85,20.012-7.737,28.335c16.601-9.746,27.778-27.735,27.778-48.376
	C247.984,225.009,222.861,199.887,191.871,199.887z"/>
<path d="M119.726,151.274h8.015c4.142,0,7.5-3.358,7.5-7.5s-3.358-7.5-7.5-7.5h-8.015c-0.285,0-0.516-0.231-0.516-0.516V55.597
	c0-0.285,0.231-0.516,0.516-0.516h104.207c4.142,0,7.5-3.358,7.5-7.5s-3.358-7.5-7.5-7.5H119.726
	c-8.556,0-15.516,6.96-15.516,15.516v80.161C104.209,144.314,111.17,151.274,119.726,151.274z"/>
<path d="M256.001,55.081h8.015c0.285,0,0.516,0.231,0.516,0.516v80.161c0,0.285-0.231,0.516-0.516,0.516H159.81
	c-4.142,0-7.5,3.358-7.5,7.5s3.358,7.5,7.5,7.5h104.207c8.556,0,15.516-6.96,15.516-15.516V55.597
	c0-8.556-6.96-15.516-15.516-15.516h-8.015c-4.142,0-7.5,3.358-7.5,7.5S251.859,55.081,256.001,55.081z"/>
<path d="M127.742,344.694c-12.976,0-23.532,10.557-23.532,23.532s10.557,23.532,23.532,23.532c12.976,0,23.533-10.557,23.533-23.532
	S140.718,344.694,127.742,344.694z M127.742,376.758c-4.705,0-8.532-3.828-8.532-8.532s3.828-8.532,8.532-8.532
	c4.705,0,8.533,3.828,8.533,8.532S132.447,376.758,127.742,376.758z"/>
<path d="M191.871,192.387c-35.076,0-63.613,28.537-63.613,63.613s28.537,63.613,63.613,63.613s63.613-28.537,63.613-63.613
	S226.947,192.387,191.871,192.387z M191.871,304.613c-26.805,0-48.613-21.808-48.613-48.613s21.808-48.613,48.613-48.613
	s48.613,21.808,48.613,48.613S218.676,304.613,191.871,304.613z"/>
<path d="M111.709,191.355h16.032c4.142,0,7.5-3.358,7.5-7.5s-3.358-7.5-7.5-7.5h-16.032c-4.142,0-7.5,3.358-7.5,7.5
	S107.567,191.355,111.709,191.355z"/>
<path d="M264.016,176.355h-16.032c-4.142,0-7.5,3.358-7.5,7.5s3.358,7.5,7.5,7.5h16.032c4.142,0,7.5-3.358,7.5-7.5
	S268.158,176.355,264.016,176.355z"/>
<path d="M177.134,230.656c-2.929-2.929-7.678-2.929-10.606,0c-2.929,2.929-2.929,7.677,0,10.606l40.081,40.081
	c1.464,1.465,3.384,2.197,5.303,2.197s3.839-0.732,5.303-2.197c2.929-2.929,2.929-7.677,0-10.606L177.134,230.656z"/>
<path d="M432.355,80.161h-0.516V55.597c0-4.142-3.358-7.5-7.5-7.5s-7.5,3.358-7.5,7.5v24.565h-0.516
	c-8.556,0-15.516,6.96-15.516,15.516v104.21c0,10.354,6.724,19.16,16.032,22.3v198.144c0,42.276-34.394,76.669-76.669,76.669
	c-4.228,0-8.373-0.359-12.417-1.021c24.108-16.532,39.957-44.273,39.957-75.649V222.187c9.308-3.139,16.032-11.946,16.032-22.3
	V95.677c0-8.556-6.96-15.516-15.516-15.516h-0.516V55.597c0-4.142-3.358-7.5-7.5-7.5s-7.5,3.358-7.5,7.5v24.565h-0.516
	c-8.556,0-15.516,6.96-15.516,15.516v104.21c0,10.354,6.724,19.16,16.032,22.3v198.144c0,30.832-18.302,57.453-44.605,69.616
	c-22.966-10.621-39.832-32.26-43.739-58.108h23.699c17.396,0,31.548-14.153,31.548-31.549V31.548C319.613,14.153,305.46,0,288.064,0
	H95.677C78.281,0,64.129,14.153,64.129,31.548V400.29c0,17.396,14.152,31.549,31.548,31.549h89.414
	c5.679,45.135,44.3,80.161,90.95,80.161c11.275,0,22.079-2.051,32.064-5.792c9.985,3.74,20.789,5.792,32.065,5.792
	c50.547,0,91.669-41.123,91.669-91.669V222.187c9.308-3.139,16.032-11.946,16.032-22.3V95.677
	C447.871,87.122,440.911,80.161,432.355,80.161z M351.677,95.677c0-0.285,0.231-0.516,0.516-0.516h16.032
	c0.285,0,0.516,0.231,0.516,0.516v104.21c0,4.705-3.828,8.532-8.532,8.532s-8.532-3.828-8.532-8.532L351.677,95.677L351.677,95.677z
	 M256,400.806c-4.705,0-8.532-3.828-8.532-8.532v-24.048c0-4.705,3.828-8.532,8.532-8.532c4.704,0,8.532,3.828,8.532,8.532v24.048
	C264.532,396.979,260.705,400.806,256,400.806z M79.129,400.29V31.548C79.129,22.424,86.552,15,95.677,15h192.387
	c9.125,0,16.548,7.424,16.548,16.548V400.29c0,9.125-7.423,16.549-16.548,16.549H263.5v-2.265
	c9.308-3.139,16.032-11.946,16.032-22.3v-24.048c0-12.976-10.557-23.532-23.532-23.532s-23.532,10.557-23.532,23.532v24.048
	c0,10.354,6.724,19.16,16.032,22.3v2.265h-49.129v-2.265c9.308-3.139,16.032-11.946,16.032-22.3v-24.048
	c0-12.976-10.557-23.532-23.532-23.532s-23.532,10.557-23.532,23.532v24.048c0,10.354,6.724,19.16,16.032,22.3v2.265H95.677
	C86.552,416.839,79.129,409.415,79.129,400.29z M191.871,400.806c-4.705,0-8.532-3.828-8.532-8.532v-24.048
	c0-4.705,3.828-8.532,8.532-8.532s8.532,3.828,8.532,8.532v24.048C200.403,396.979,196.576,400.806,191.871,400.806z M276.04,497
	c-38.365,0-70.234-28.326-75.803-65.161h48.984c3.345,26.587,18.122,49.662,39.236,64.141C284.413,496.641,280.268,497,276.04,497z
	 M432.871,199.887c0,4.705-3.828,8.532-8.532,8.532s-8.532-3.828-8.532-8.532V95.677c0-0.285,0.231-0.516,0.516-0.516h16.032
	c0.285,0,0.516,0.231,0.516,0.516L432.871,199.887L432.871,199.887z"/>
<g>
</g>
<g>
</g>
<g>
</g>
<g>
</g>
<g>
</g>
<g>
</g>
<g>
</g>
<g>
</g>
<g>
</g>
<g>
</g>
<g>
</g>
<g>
</g>
<g>
</g>
<g>
</g>
<g>
</g>
</svg>
